<svg viewBox="0 0 390 844" xmlns="http://www.w3.org/2000/svg" font-family="system-ui,-apple-system,sans-serif">
  <defs>
    <linearGradient id="bgP" x1="0" y1="0" x2="0" y2="1">
      <stop offset="0%" stop-color="#0D0F14"/>
      <stop offset="100%" stop-color="#111318"/>
    </linearGradient>
    <linearGradient id="graphLine" x1="0" y1="0" x2="1" y2="0">
      <stop offset="0%" stop-color="#6C63FF"/>
      <stop offset="100%" stop-color="#00D4AA"/>
    </linearGradient>
    <linearGradient id="graphFill" x1="0" y1="0" x2="0" y2="1">
      <stop offset="0%" stop-color="#6C63FF" stop-opacity="0.3"/>
      <stop offset="100%" stop-color="#6C63FF" stop-opacity="0"/>
    </linearGradient>
    <clipPath id="screenP"><rect width="390" height="844" rx="0"/></clipPath>
  </defs>

  <rect width="390" height="844" fill="url(#bgP)" clip-path="url(#screenP)"/>

  <!-- Status bar -->
  <text x="20" y="26" fill="#ffffff" font-size="13" font-weight="600">9:41</text>
  <rect x="320" y="16" width="3" height="6" rx="1" fill="#fff" opacity="0.4"/>
  <rect x="325" y="14" width="3" height="8" rx="1" fill="#fff" opacity="0.6"/>
  <rect x="330" y="12" width="3" height="10" rx="1" fill="#fff" opacity="0.8"/>
  <rect x="335" y="10" width="3" height="12" rx="1" fill="#fff"/>
  <path d="M348 20 Q353 15 358 20" stroke="#fff" stroke-width="1.5" fill="none" opacity="0.6"/>
  <path d="M345 23 Q353 13 361 23" stroke="#fff" stroke-width="1.5" fill="none" opacity="0.4"/>
  <circle cx="353" cy="24" r="1.5" fill="#fff"/>
  <rect x="366" y="14" width="18" height="10" rx="2" stroke="#fff" stroke-width="1.2" fill="none"/>
  <rect x="384" y="17" width="2" height="4" rx="1" fill="#fff" opacity="0.5"/>
  <rect x="367.5" y="15.5" width="12" height="7" rx="1.2" fill="#fff"/>

  <!-- Header -->
  <text x="20" y="70" fill="#ffffff" font-size="22" font-weight="700">My Progress</text>

  <!-- Streak badge -->
  <rect x="290" y="50" width="82" height="30" rx="15" fill="#6C63FF" opacity="0.2"/>
  <rect x="290" y="50" width="82" height="30" rx="15" stroke="#6C63FF" stroke-width="1" fill="none"/>
  <text x="302" y="70" fill="#FF6B35" font-size="16">🔥</text>
  <text x="322" y="70" fill="#9C95FF" font-size="13" font-weight="600">23 days</text>

  <!-- Weight card -->
  <rect x="16" y="90" width="358" height="180" rx="16" fill="#15181F"/>
  <text x="32" y="116" fill="#8A8A9A" font-size="12" font-weight="600" letter-spacing="0.5">WEIGHT (KG)</text>

  <!-- Stat highlight -->
  <text x="32" y="148" fill="#ffffff" font-size="32" font-weight="700">72.4</text>
  <rect x="116" y="128" width="68" height="22" rx="11" fill="#00D4AA" opacity="0.15"/>
  <text x="150" y="143" fill="#00D4AA" font-size="12" font-weight="600" text-anchor="middle">↓ 2.1 kg</text>

  <!-- Graph -->
  <g transform="translate(20, 160)">
    <!-- Grid lines -->
    <line x1="12" y1="0" x2="340" y2="0" stroke="#ffffff" stroke-width="0.5" opacity="0.06"/>
    <line x1="12" y1="25" x2="340" y2="25" stroke="#ffffff" stroke-width="0.5" opacity="0.06"/>
    <line x1="12" y1="50" x2="340" y2="50" stroke="#ffffff" stroke-width="0.5" opacity="0.06"/>
    <line x1="12" y1="75" x2="340" y2="75" stroke="#ffffff" stroke-width="0.5" opacity="0.06"/>

    <!-- Fill area under graph -->
    <path d="M12 70 Q50 60 80 55 Q110 50 130 48 Q160 44 185 40 Q210 35 230 30 Q260 22 285 18 Q310 14 340 8 L340 100 L12 100 Z"
      fill="url(#graphFill)"/>

    <!-- Graph line -->
    <path d="M12 70 Q50 60 80 55 Q110 50 130 48 Q160 44 185 40 Q210 35 230 30 Q260 22 285 18 Q310 14 340 8"
      stroke="url(#graphLine)" stroke-width="2.5" fill="none" stroke-linecap="round"/>

    <!-- Data point at end -->
    <circle cx="340" cy="8" r="5" fill="#00D4AA"/>
    <circle cx="340" cy="8" r="10" fill="#00D4AA" opacity="0.2"/>

    <!-- X labels -->
    <text x="12" y="115" fill="#8A8A9A" font-size="10" text-anchor="middle">Week 1</text>
    <text x="130" y="115" fill="#8A8A9A" font-size="10" text-anchor="middle">Week 2</text>
    <text x="235" y="115" fill="#8A8A9A" font-size="10" text-anchor="middle">Week 3</text>
    <text x="340" y="115" fill="#8A8A9A" font-size="10" text-anchor="middle">Today</text>
  </g>

  <!-- Waist card -->
  <rect x="16" y="290" width="170" height="110" rx="16" fill="#15181F"/>
  <text x="32" y="316" fill="#8A8A9A" font-size="11" font-weight="600" letter-spacing="0.5">WAIST (CM)</text>
  <text x="32" y="352" fill="#ffffff" font-size="28" font-weight="700">84.6</text>
  <rect x="32" y="360" width="72" height="20" rx="10" fill="#6C63FF" opacity="0.15"/>
  <text x="68" y="374" fill="#9C95FF" font-size="11" font-weight="600" text-anchor="middle">↓ 3.4 cm</text>

  <!-- BMI card -->
  <rect x="204" y="290" width="170" height="110" rx="16" fill="#15181F"/>
  <text x="220" y="316" fill="#8A8A9A" font-size="11" font-weight="600" letter-spacing="0.5">BMI</text>
  <text x="220" y="352" fill="#ffffff" font-size="28" font-weight="700">24.1</text>
  <rect x="220" y="360" width="72" height="20" rx="10" fill="#00D4AA" opacity="0.15"/>
  <text x="256" y="374" fill="#00D4AA" font-size="11" font-weight="600" text-anchor="middle">Normal</text>

  <!-- Workout log -->
  <text x="20" y="430" fill="#ffffff" font-size="16" font-weight="700">Recent Workouts</text>

  <!-- Log entries -->
  <g>
    <rect x="16" y="442" width="358" height="52" rx="12" fill="#15181F"/>
    <circle cx="42" cy="468" r="14" fill="#6C63FF" opacity="0.2"/>
    <text x="42" y="473" fill="#9C95FF" font-size="13" text-anchor="middle">✓</text>
    <text x="68" y="463" fill="#ffffff" font-size="14" font-weight="600">Today · 10:22 AM</text>
    <text x="68" y="480" fill="#8A8A9A" font-size="12">10 min complete · Phase A–C</text>
    <rect x="330" y="458" width="28" height="20" rx="10" fill="#00D4AA" opacity="0.15"/>
    <text x="344" y="471" fill="#00D4AA" font-size="10" font-weight="700" text-anchor="middle">✓</text>
  </g>

  <g>
    <rect x="16" y="502" width="358" height="52" rx="12" fill="#15181F"/>
    <circle cx="42" cy="528" r="14" fill="#6C63FF" opacity="0.2"/>
    <text x="42" y="533" fill="#9C95FF" font-size="13" text-anchor="middle">✓</text>
    <text x="68" y="523" fill="#ffffff" font-size="14" font-weight="600">Yesterday · 8:05 AM</text>
    <text x="68" y="540" fill="#8A8A9A" font-size="12">10 min complete · Phase A–C</text>
    <rect x="330" y="518" width="28" height="20" rx="10" fill="#00D4AA" opacity="0.15"/>
    <text x="344" y="531" fill="#00D4AA" font-size="10" font-weight="700" text-anchor="middle">✓</text>
  </g>

  <g>
    <rect x="16" y="562" width="358" height="52" rx="12" fill="#15181F"/>
    <circle cx="42" cy="588" r="14" fill="#6C63FF" opacity="0.2"/>
    <text x="42" y="593" fill="#9C95FF" font-size="13" text-anchor="middle">✓</text>
    <text x="68" y="583" fill="#ffffff" font-size="14" font-weight="600">June 12 · 9:40 AM</text>
    <text x="68" y="600" fill="#8A8A9A" font-size="12">10 min complete · Phase A–C</text>
    <rect x="330" y="578" width="28" height="20" rx="10" fill="#00D4AA" opacity="0.15"/>
    <text x="344" y="591" fill="#00D4AA" font-size="10" font-weight="700" text-anchor="middle">✓</text>
  </g>

  <!-- Bottom nav -->
  <rect x="0" y="758" width="390" height="86" fill="#0D0F14"/>
  <line x1="0" y1="758" x2="390" y2="758" stroke="#ffffff" stroke-width="0.5" opacity="0.1"/>

  <!-- Nav icons -->
  <g text-anchor="middle">
    <!-- Home -->
    <rect x="45" y="775" width="24" height="20" rx="4" stroke="#8A8A9A" stroke-width="1.5" fill="none"/>
    <path d="M39 779 L57 779" stroke="#8A8A9A" stroke-width="1.5" fill="none"/>
    <text x="57" y="812" fill="#8A8A9A" font-size="10">Home</text>

    <!-- Progress (active) -->
    <path d="M133 793 L141 781 L149 787 L157 775 L165 781" stroke="#6C63FF" stroke-width="2" fill="none" stroke-linecap="round"/>
    <text x="149" y="812" fill="#6C63FF" font-size="10" font-weight="600">Progress</text>

    <!-- Workout -->
    <circle cx="241" cy="784" r="10" fill="none" stroke="#8A8A9A" stroke-width="1.5"/>
    <path d="M237 784 L244 780 L244 788 Z" fill="#8A8A9A"/>
    <text x="241" y="812" fill="#8A8A9A" font-size="10">Workout</text>

    <!-- Settings -->
    <circle cx="333" cy="784" r="8" fill="none" stroke="#8A8A9A" stroke-width="1.5"/>
    <circle cx="333" cy="784" r="3" fill="#8A8A9A"/>
    <text x="333" y="812" fill="#8A8A9A" font-size="10">Settings</text>
  </g>

  <!-- Active indicator -->
  <rect x="132" y="758" width="34" height="2" rx="1" fill="#6C63FF"/>

  <rect x="140" y="828" width="110" height="4" rx="2" fill="#fff" opacity="0.25"/>
</svg>
